<?xml version="1.0" encoding="utf-8"?>
<!-- Generator: Adobe Illustrator 16.0.0, SVG Export Plug-In . SVG Version: 6.00 Build 0)  -->
<!DOCTYPE svg PUBLIC "-//W3C//DTD SVG 1.1//EN" "http://www.w3.org/Graphics/SVG/1.1/DTD/svg11.dtd">
<svg version="1.1" id="Layer_1" xmlns="http://www.w3.org/2000/svg" xmlns:xlink="http://www.w3.org/1999/xlink" x="0px" y="0px"
	 width="150px" height="150px" viewBox="0 0 150 150" enable-background="new 0 0 150 150" xml:space="preserve">
<g>
	<path fill="#FFFFFF" d="M144.711,128.23L80.438,16.074c-0.99-1.728-2.826-2.792-4.816-2.799c-1.983-0.026-3.833,1.056-4.834,2.776
		L36.503,75H10.479C8.17,75,6.3,76.691,6.3,78.998C6.3,81.309,8.17,83,10.479,83h21.367L5.624,128.09
		c-1,1.721-1.007,3.871-0.018,5.597c0.99,1.729,2.826,2.818,4.816,2.824L140.024,137c0.006,0,0.012,0,0.019,0
		c0.003,0,0.007,0,0.011,0c3.077,0,5.571-2.563,5.571-5.641C145.625,130.23,145.289,129.108,144.711,128.23z M20.108,125.314
		L29.007,110h33.288c2.308,0,4.179-2.192,4.179-4.5c0-2.309-1.871-4.5-4.179-4.5H34.247l10.479-18h30.384
		c2.308,0,4.179-1.691,4.179-4.002c0-2.307-1.871-3.998-4.179-3.998H49.383l26.185-45.016l54.842,95.694L20.108,125.314z"/>
</g>
</svg>
